<svg width="64" height="64" viewBox="0 0 64 64" fill="none" xmlns="http://www.w3.org/2000/svg">
<path d="M46.5 3.875H17.5C15.2938 3.875 13.5 5.66875 13.5 7.875V55.875C13.5 58.0812 15.2938 59.875 17.5 59.875H46.5C48.7062 59.875 50.5 58.0812 50.5 55.875V7.875C50.5 5.66875 48.7062 3.875 46.5 3.875ZM46 55.375H18V8.375H46V55.375ZM29.5 49C29.5 49.663 29.7634 50.2989 30.2322 50.7678C30.7011 51.2366 31.337 51.5 32 51.5C32.663 51.5 33.2989 51.2366 33.7678 50.7678C34.2366 50.2989 34.5 49.663 34.5 49C34.5 48.337 34.2366 47.7011 33.7678 47.2322C33.2989 46.7634 32.663 46.5 32 46.5C31.337 46.5 30.7011 46.7634 30.2322 47.2322C29.7634 47.7011 29.5 48.337 29.5 49Z" fill="#DD0F1C"/>
</svg>
