<svg width="192" height="109" viewBox="0 0 192 109" fill="none" xmlns="http://www.w3.org/2000/svg">
<path d="M4.90295 51.7632H2.59961V25.2778H13.2333C14.4683 25.2778 15.5999 25.4862 16.6296 25.9015C17.6624 26.3183 18.5578 26.9065 19.3158 27.6676C20.0769 28.4256 20.6651 29.3164 21.0819 30.3415C21.4972 31.3666 21.7056 32.4889 21.7056 33.7069C21.7056 34.942 21.4972 36.0767 21.0819 37.1095C20.6651 38.1392 20.0846 39.0346 19.3405 39.7957C18.5949 40.5537 17.7072 41.1403 16.679 41.5556C15.6539 41.9724 14.5254 42.1793 13.295 42.1793H4.90295V51.7632ZM4.90295 27.3774V40.0983H13.2333C14.4143 40.0859 15.4687 39.8049 16.395 39.2523C17.3243 38.7011 18.0592 37.9416 18.5995 36.9736C19.1383 36.0072 19.4084 34.9173 19.4084 33.7069C19.4084 32.827 19.251 32.0072 18.9391 31.2492C18.6304 30.4881 18.1919 29.815 17.6238 29.2299C17.0588 28.6464 16.3965 28.191 15.6354 27.8652C14.8774 27.541 14.0515 27.3774 13.1592 27.3774H4.90295Z" fill="white"/>
<path d="M28.9337 51.7632H26.6304V25.2778H37.7333C38.9684 25.2778 40.1 25.4693 41.1297 25.8521C42.1625 26.235 43.0579 26.7815 43.8159 27.4885C44.577 28.1971 45.1652 29.0447 45.582 30.0327C45.9973 31.0177 46.2057 32.1184 46.2057 33.3364C46.2057 34.6749 45.9479 35.8729 45.4338 36.9304C44.9228 37.9894 44.2065 38.8663 43.2848 39.561C42.3616 40.2573 41.2918 40.7343 40.0737 40.9937L46.7676 51.7632H44.0814L37.6963 41.3271C37.5759 41.3395 37.4585 41.3456 37.3443 41.3456C37.2285 41.3456 37.105 41.3456 36.9738 41.3456H28.9337V51.7632ZM28.9337 27.3774V39.3387H37.7333C38.9143 39.3264 39.9687 39.0732 40.895 38.5792C41.8244 38.0851 42.5592 37.392 43.0996 36.4981C43.6383 35.6012 43.9085 34.556 43.9085 33.3611C43.9085 32.1925 43.6337 31.1566 43.0872 30.255C42.5438 29.3504 41.7997 28.6433 40.858 28.1369C39.9193 27.6306 38.851 27.3774 37.6531 27.3774H28.9337Z" fill="white"/>
<path d="M64.12 52.2508C62.5762 52.2508 61.1019 52.0192 59.6986 51.5591C58.2983 51.0991 57.0093 50.4507 55.8329 49.614C54.6596 48.7741 53.6438 47.7846 52.7885 46.6437C51.9317 45.4997 51.2648 44.24 50.7878 42.8645C50.3138 41.4859 50.0776 40.0301 50.0776 38.4986C50.0776 36.9548 50.3138 35.496 50.7878 34.1204C51.2648 32.7418 51.9317 31.4775 52.7885 30.3289C53.6438 29.1803 54.6596 28.1892 55.8329 27.3524C57.0093 26.5126 58.2983 25.8627 59.6986 25.4011C61.1019 24.941 62.5762 24.7095 64.12 24.7095C65.6792 24.7095 67.1597 24.941 68.5599 25.4011C69.9632 25.8627 71.2523 26.5126 72.4256 27.3524C73.602 28.1892 74.6193 29.1803 75.4761 30.3289C76.3314 31.4775 76.9968 32.7418 77.4707 34.1204C77.9431 35.496 78.1809 36.9548 78.1809 38.4986C78.1809 40.0301 77.9431 41.4859 77.4707 42.8645C76.9968 44.24 76.3314 45.4997 75.4761 46.6437C74.6193 47.7846 73.602 48.7741 72.4256 49.614C71.2523 50.4507 69.9632 51.0991 68.5599 51.5591C67.1597 52.0192 65.6792 52.2508 64.12 52.2508ZM64.12 50.0894C65.4199 50.0894 66.658 49.898 67.8313 49.5152C69.0045 49.1323 70.0806 48.5935 71.0609 47.8973C72.0443 47.2025 72.8965 46.3704 73.6174 45.4025C74.3368 44.4361 74.8957 43.3709 75.2909 42.2099C75.6861 41.049 75.8837 39.8124 75.8837 38.4986C75.8837 37.1895 75.6861 35.9483 75.2909 34.775C74.8957 33.5986 74.3368 32.5303 73.6174 31.5701C72.8965 30.6068 72.0443 29.7716 71.0609 29.063C70.0806 28.3559 69.0045 27.8094 67.8313 27.4265C66.658 27.0437 65.4199 26.8523 64.12 26.8523C62.8232 26.8523 61.5851 27.0437 60.4087 27.4265C59.2354 27.8094 58.1609 28.3559 57.1853 29.063C56.2127 29.7716 55.3667 30.6068 54.6473 31.5701C53.9263 32.5303 53.3659 33.5986 52.9676 34.775C52.5724 35.9483 52.3748 37.1895 52.3748 38.4986C52.3748 39.8124 52.5724 41.049 52.9676 42.2099C53.3659 43.3709 53.9263 44.4361 54.6473 45.4025C55.3667 46.3704 56.2173 47.2025 57.1976 47.8973C58.1764 48.5935 59.2509 49.1323 60.4211 49.5152C61.5897 49.898 62.8232 50.0894 64.12 50.0894Z" fill="white"/>
<path d="M93.2956 51.7632H83.9834V25.2778H93.2153C95.3056 25.2778 97.2014 25.5928 98.9026 26.2226C100.602 26.8525 102.061 27.7525 103.281 28.9212C104.504 30.0868 105.445 31.4777 106.109 33.0956C106.771 34.7135 107.103 36.5151 107.103 38.4989C107.103 40.4873 106.773 42.2966 106.115 43.9269C105.461 45.554 104.522 46.9512 103.299 48.1198C102.08 49.29 100.622 50.1885 98.9273 50.8184C97.2353 51.4482 95.3581 51.7632 93.2956 51.7632ZM86.262 27.3589V49.6574H93.2585C95.0246 49.6574 96.6132 49.3965 98.0257 48.8732C99.4414 48.3467 100.652 47.5995 101.657 46.6316C102.665 45.6652 103.435 44.4996 103.966 43.1364C104.497 41.7748 104.763 40.2557 104.763 38.5792C104.763 36.8918 104.493 35.3604 103.954 33.9848C103.418 32.6062 102.645 31.4252 101.632 30.4403C100.619 29.4523 99.3982 28.6927 97.9702 28.1616C96.5406 27.6275 94.9382 27.3589 93.1597 27.3589H86.262Z" fill="white"/>
<path d="M123.054 52.2695C121.548 52.2695 120.143 52.0163 118.843 51.5099C117.546 51.0036 116.413 50.278 115.446 49.3301C114.479 48.3838 113.721 47.2475 113.174 45.9214C112.631 44.5968 112.359 43.1163 112.359 41.4815V25.2593H114.638V41.3024C114.638 42.5004 114.823 43.6289 115.193 44.6864C115.564 45.7454 116.109 46.6794 116.83 47.4899C117.549 48.3019 118.432 48.938 119.479 49.398C120.524 49.8596 121.716 50.0897 123.054 50.0897C124.363 50.0897 125.534 49.8643 126.568 49.4104C127.601 48.9534 128.479 48.3266 129.205 47.527C129.933 46.7288 130.489 45.8041 130.872 44.7543C131.255 43.7014 131.446 42.5776 131.446 41.3827V25.2593H133.744V41.4815C133.744 43.0916 133.475 44.5552 132.941 45.872C132.41 47.1904 131.659 48.3266 130.693 49.2807C129.725 50.2363 128.593 50.9727 127.297 51.4914C126 52.0101 124.586 52.2695 123.054 52.2695Z" fill="white"/>
<path d="M152.652 52.2508C151.108 52.2508 149.646 52.0192 148.267 51.5591C146.892 51.0991 145.637 50.4507 144.501 49.614C143.364 48.7741 142.384 47.7846 141.561 46.6437C140.737 45.4997 140.101 44.24 139.653 42.8645C139.204 41.4859 138.98 40.0301 138.98 38.4986C138.98 36.9548 139.204 35.496 139.653 34.1204C140.101 32.7418 140.737 31.4775 141.561 30.3289C142.384 29.1803 143.364 28.1892 144.501 27.3524C145.637 26.5126 146.892 25.8627 148.267 25.4011C149.646 24.941 151.108 24.7095 152.652 24.7095C154.055 24.7095 155.406 24.9055 156.703 25.2961C158.003 25.6882 159.194 26.2594 160.278 27.0128C161.36 27.7631 162.288 28.6971 163.063 29.8163C163.837 30.9325 164.399 32.2169 164.749 33.6697H162.409C161.979 32.1922 161.292 30.9464 160.346 29.9337C159.398 28.9209 158.262 28.1552 156.937 27.6365C155.611 27.1147 154.165 26.8523 152.596 26.8523C150.998 26.8523 149.515 27.1456 148.144 27.7291C146.773 28.3142 145.57 29.134 144.538 30.1869C143.508 31.2366 142.707 32.4701 142.135 33.8858C141.563 35.303 141.277 36.8406 141.277 38.4986C141.277 40.1752 141.563 41.7159 142.135 43.1238C142.707 44.5318 143.508 45.7576 144.538 46.7981C145.57 47.8355 146.773 48.6445 148.144 49.2249C149.515 49.8023 150.998 50.0894 152.596 50.0894C154.152 50.0894 155.593 49.8301 156.919 49.3114C158.243 48.7896 159.383 48.0254 160.334 47.0204C161.288 46.0169 161.979 44.7726 162.409 43.2906H164.768C164.417 44.7448 163.855 46.0308 163.082 47.1501C162.307 48.2662 161.379 49.2048 160.297 49.9659C159.213 50.7239 158.021 51.2936 156.721 51.6765C155.424 52.0593 154.067 52.2508 152.652 52.2508Z" fill="white"/>
<path d="M178.749 51.7632H176.452V27.3774H167.646V25.2778H187.573V27.3774H178.749V51.7632Z" fill="white"/>
<path d="M21.2834 107.889H1.64014V59.6733H21.1722C25.0502 59.6733 28.5716 60.2476 31.7379 61.3962C34.9073 62.5417 37.6321 64.1781 39.9139 66.3055C42.1941 68.4297 43.9478 70.9646 45.1751 73.9071C46.4055 76.8511 47.0215 80.1302 47.0215 83.7442C47.0215 87.3628 46.4117 90.6573 45.1936 93.6245C43.974 96.5885 42.2311 99.1358 39.9633 101.263C37.6939 103.387 34.9814 105.024 31.8244 106.172C28.6704 107.318 25.1567 107.889 21.2834 107.889ZM12.7369 69.6339V97.9286H20.8943C24.0097 97.9286 26.6743 97.3666 28.885 96.2427C31.0957 95.1188 32.7846 93.5056 33.9548 91.4014C35.1235 89.2987 35.7086 86.7932 35.7086 83.8862C35.7086 81.0055 35.1405 78.4999 34.0042 76.371C32.8711 74.2437 31.2069 72.5887 29.0085 71.4062C26.8102 70.2252 24.0931 69.6339 20.8573 69.6339H12.7369Z" fill="white"/>
<path d="M76.9426 108.989C74.0356 108.989 71.2692 108.564 68.6432 107.717C66.0203 106.865 63.6166 105.671 61.4306 104.135C59.2445 102.596 57.3519 100.77 55.7556 98.6578C54.1624 96.5428 52.9227 94.2209 52.0381 91.6922C51.152 89.1603 50.7104 86.4988 50.7104 83.7077C50.7104 80.8964 51.152 78.2272 52.0381 75.6985C52.9227 73.1713 54.1624 70.8618 55.7556 68.7699C57.3519 66.675 59.2445 64.8533 61.4306 63.3049C63.6166 61.758 66.0203 60.5662 68.6432 59.7295C71.2692 58.8896 74.0356 58.4697 76.9426 58.4697C79.8233 58.4697 82.5697 58.8896 85.1803 59.7295C87.7939 60.5662 90.1945 61.758 92.3805 63.3049C94.5665 64.8533 96.4623 66.675 98.0679 68.7699C99.6765 70.8618 100.924 73.1713 101.81 75.6985C102.699 78.2272 103.144 80.8964 103.144 83.7077C103.144 86.4988 102.699 89.1603 101.81 91.6922C100.924 94.2209 99.6765 96.5428 98.0679 98.6578C96.4623 100.77 94.5665 102.596 92.3805 104.135C90.1945 105.671 87.7939 106.865 85.1803 107.717C82.5697 108.564 79.8233 108.989 76.9426 108.989ZM76.9426 98.7072C79.0205 98.7072 80.9704 98.3413 82.7905 97.608C84.6091 96.8762 86.2054 95.8357 87.5762 94.4895C88.9471 93.1433 90.017 91.5609 90.7873 89.7408C91.5561 87.9176 91.9421 85.9184 91.9421 83.7447C91.9421 81.5711 91.5561 79.5688 90.7873 77.7363C90.017 75.9053 88.9471 74.3152 87.5762 72.969C86.2054 71.6229 84.6091 70.5839 82.7905 69.8506C80.9704 69.1188 79.0205 68.7514 76.9426 68.7514C74.8631 68.7514 72.9133 69.1188 71.0947 69.8506C69.2746 70.5839 67.6798 71.6229 66.3089 72.969C64.9381 74.3152 63.8667 75.9053 63.0979 77.7363C62.3321 79.5688 61.9493 81.5711 61.9493 83.7447C61.9493 85.9184 62.3383 87.9176 63.1164 89.7408C63.8944 91.5609 64.9689 93.1433 66.3398 94.4895C67.7107 95.8357 69.2993 96.8762 71.1071 97.608C72.9179 98.3413 74.8631 98.7072 76.9426 98.7072Z" fill="white"/>
<path d="M114.951 107.889H106.509V97.8915H115.019C117.052 97.8915 118.682 97.2724 119.909 96.0328C121.14 94.79 121.756 93.0563 121.756 90.8333V59.6733H132.921V91.5125C132.921 94.1602 132.471 96.5005 131.574 98.5337C130.676 100.564 129.413 102.276 127.783 103.671C126.153 105.067 124.244 106.12 122.058 106.827C119.872 107.536 117.503 107.889 114.951 107.889Z" fill="white"/>
<path d="M165.149 108.989C162.242 108.989 159.476 108.564 156.85 107.717C154.227 106.865 151.823 105.671 149.637 104.135C147.451 102.596 145.558 100.77 143.962 98.6578C142.369 96.5428 141.129 94.2209 140.245 91.6922C139.359 89.1603 138.917 86.4988 138.917 83.7077C138.917 80.8964 139.359 78.2272 140.245 75.6985C141.129 73.1713 142.369 70.8618 143.962 68.7699C145.558 66.675 147.451 64.8533 149.637 63.3049C151.823 61.758 154.227 60.5662 156.85 59.7295C159.476 58.8896 162.242 58.4697 165.149 58.4697C168.03 58.4697 170.776 58.8896 173.387 59.7295C176 60.5662 178.401 61.758 180.587 63.3049C182.773 64.8533 184.669 66.675 186.274 68.7699C187.883 70.8618 189.13 73.1713 190.017 75.6985C190.906 78.2272 191.35 80.8964 191.35 83.7077C191.35 86.4988 190.906 89.1603 190.017 91.6922C189.13 94.2209 187.883 96.5428 186.274 98.6578C184.669 100.77 182.773 102.596 180.587 104.135C178.401 105.671 176 106.865 173.387 107.717C170.776 108.564 168.03 108.989 165.149 108.989ZM165.149 98.7072C167.227 98.7072 169.177 98.3413 170.997 97.608C172.816 96.8762 174.412 95.8357 175.783 94.4895C177.154 93.1433 178.224 91.5609 178.994 89.7408C179.763 87.9176 180.149 85.9184 180.149 83.7447C180.149 81.5711 179.763 79.5688 178.994 77.7363C178.224 75.9053 177.154 74.3152 175.783 72.969C174.412 71.6229 172.816 70.5839 170.997 69.8506C169.177 69.1188 167.227 68.7514 165.149 68.7514C163.07 68.7514 161.12 69.1188 159.301 69.8506C157.481 70.5839 155.886 71.6229 154.515 72.969C153.145 74.3152 152.073 75.9053 151.304 77.7363C150.539 79.5688 150.156 81.5711 150.156 83.7447C150.156 85.9184 150.545 87.9176 151.323 89.7408C152.101 91.5609 153.175 93.1433 154.546 94.4895C155.917 95.8357 157.506 96.8762 159.314 97.608C161.124 98.3413 163.07 98.7072 165.149 98.7072Z" fill="white"/>
<path d="M5.75526 12.2399H3.14934V3.32299H0V0.98877H8.89843V3.32299H5.75526V12.2399Z" fill="white"/>
<path d="M12.977 12.2399H10.3525V0.98877H12.977V5.37314H17.8924V0.98877H20.5231V12.2399H17.8924V7.69501H12.977V12.2399Z" fill="white"/>
<path d="M30.8271 12.2399H22.8179V0.98877H30.753V3.31064H25.4423V5.44107H29.9996V7.62091H25.4423V9.90572H30.8271V12.2399Z" fill="white"/>
</svg>
