<svg width="64" height="64" viewBox="0 0 64 64" fill="none" xmlns="http://www.w3.org/2000/svg">
<path d="M8.78934 54.9387L25.76 37.9681M47.1307 30.4214L42.0507 45.6614C41.9696 45.9057 41.8308 46.1268 41.646 46.306C41.4613 46.4852 41.236 46.6172 40.9893 46.6907L9.848 55.9467C9.56745 56.03 9.26941 56.0348 8.98632 55.9605C8.70324 55.8862 8.44596 55.7357 8.24247 55.5254C8.03899 55.315 7.8971 55.0529 7.83225 54.7675C7.7674 54.4821 7.78207 54.1844 7.87467 53.9067L17.9867 23.5761C18.0591 23.3583 18.1776 23.1586 18.3341 22.9907C18.4905 22.8228 18.6812 22.6904 18.8933 22.6027L33.2587 16.6881C33.5507 16.5674 33.8719 16.536 34.1818 16.5977C34.4917 16.6594 34.7764 16.8115 35 17.0347L46.744 28.7841C46.9541 28.9941 47.1016 29.2586 47.1699 29.5478C47.2382 29.837 47.2246 30.1395 47.1307 30.4214Z" stroke="#DD0F1C" stroke-width="3" stroke-linecap="round" stroke-linejoin="round"/>
<path d="M47.4453 29.4826L54.9867 21.9386C55.9865 20.9385 56.5482 19.5822 56.5482 18.168C56.5482 16.7538 55.9865 15.3975 54.9867 14.3973L49.3333 8.73864C48.838 8.24317 48.25 7.85012 47.6028 7.58196C46.9556 7.3138 46.2619 7.17578 45.5613 7.17578C44.8608 7.17578 44.1671 7.3138 43.5198 7.58196C42.8726 7.85012 42.2846 8.24317 41.7893 8.73864L34.248 16.2826M31.416 32.3093C31.0444 31.9379 30.6034 31.6434 30.118 31.4424C29.6326 31.2415 29.1124 31.1382 28.587 31.1383C28.0617 31.1384 27.5415 31.242 27.0563 31.4432C26.571 31.6443 26.13 31.9391 25.7587 32.3106C25.3873 32.6822 25.0927 33.1233 24.8918 33.6086C24.6909 34.094 24.5875 34.6143 24.5876 35.1396C24.5878 35.6649 24.6914 36.1851 24.8925 36.6704C25.0937 37.1557 25.3884 37.5966 25.76 37.968C26.5104 38.718 27.528 39.1392 28.5889 39.139C29.6499 39.1387 30.6673 38.717 31.4173 37.9666C32.1674 37.2163 32.5886 36.1987 32.5883 35.1377C32.5881 34.0767 32.1664 33.0593 31.416 32.3093Z" stroke="#DD0F1C" stroke-width="3" stroke-linecap="round" stroke-linejoin="round"/>
</svg>
