<svg width="64" height="64" viewBox="0 0 64 64" fill="none" xmlns="http://www.w3.org/2000/svg">
<path d="M56.0006 56.0006L44.4192 44.4192M44.4192 44.4192C46.4003 42.4382 47.9717 40.0864 49.0438 37.498C50.1159 34.9097 50.6678 32.1355 50.6678 29.3339C50.6678 26.5323 50.116 23.7581 49.0438 21.1698C47.9717 18.5814 46.4003 16.2296 44.4192 14.2485C42.4382 12.2675 40.0864 10.6961 37.498 9.62395C34.9097 8.55182 32.1355 8 29.3339 8C26.5323 8 23.7581 8.55182 21.1698 9.62395C18.5814 10.6961 16.2296 12.2675 14.2485 14.2485C10.2477 18.2494 8 23.6758 8 29.3339C8 34.992 10.2477 40.4183 14.2485 44.4192C18.2494 48.4201 23.6758 50.6678 29.3339 50.6678C34.992 50.6678 40.4183 48.4201 44.4192 44.4192Z" stroke="#DD0F1C" stroke-width="5" stroke-linecap="round" stroke-linejoin="round"/>
</svg>
