<svg width="64" height="64" viewBox="0 0 64 64" fill="none" xmlns="http://www.w3.org/2000/svg">
<path d="M15.9974 58.666C14.5307 58.666 13.2756 58.1442 12.2321 57.1007C11.1885 56.0571 10.6658 54.8011 10.6641 53.3327V26.666C10.6641 25.1994 11.1867 23.9442 12.2321 22.9007C13.2774 21.8571 14.5325 21.3345 15.9974 21.3327H18.6641V15.9993C18.6641 12.3105 19.9645 9.16646 22.5654 6.56735C25.1663 3.96824 28.3103 2.6678 31.9974 2.66602C35.6845 2.66424 38.8294 3.96468 41.4321 6.56735C44.0347 9.17002 45.3343 12.314 45.3307 15.9993V21.3327H47.9974C49.4641 21.3327 50.7201 21.8553 51.7654 22.9007C52.8107 23.946 53.3325 25.2011 53.3307 26.666V53.3327C53.3307 54.7993 52.809 56.0553 51.7654 57.1007C50.7218 58.146 49.4658 58.6678 47.9974 58.666H15.9974ZM15.9974 53.3327H47.9974V26.666H15.9974V53.3327ZM31.9974 45.3327C33.4641 45.3327 34.7201 44.8109 35.7654 43.7673C36.8107 42.7238 37.3325 41.4678 37.3307 39.9993C37.329 38.5309 36.8072 37.2758 35.7654 36.234C34.7236 35.1922 33.4676 34.6696 31.9974 34.666C30.5272 34.6625 29.2721 35.1851 28.2321 36.234C27.1921 37.2829 26.6694 38.538 26.6641 39.9993C26.6587 41.4607 27.1814 42.7167 28.2321 43.7673C29.2827 44.818 30.5378 45.3398 31.9974 45.3327ZM23.9974 21.3327H39.9974V15.9993C39.9974 13.7771 39.2196 11.8882 37.6641 10.3327C36.1085 8.77713 34.2196 7.99935 31.9974 7.99935C29.7752 7.99935 27.8863 8.77713 26.3307 10.3327C24.7752 11.8882 23.9974 13.7771 23.9974 15.9993V21.3327Z" fill="#DD0F1C"/>
</svg>
