<svg width="64" height="64" viewBox="0 0 64 64" fill="none" xmlns="http://www.w3.org/2000/svg">
<path d="M18.9332 30.2667C19.5554 29.0223 20.1999 27.8223 20.8666 26.6667C21.5332 25.5112 22.2666 24.3556 23.0666 23.2001L19.3332 22.4667L13.7332 28.0667L18.9332 30.2667ZM51.0666 11.9334C47.9554 12.0223 44.6337 12.9334 41.1012 14.6667C37.5688 16.4001 34.3572 18.7112 31.4666 21.6001C29.5999 23.4667 27.9332 25.4667 26.4666 27.6001C24.9999 29.7334 23.911 31.7334 23.1999 33.6001L30.7999 41.1334C32.6666 40.4223 34.6666 39.3334 36.7999 37.8667C38.9332 36.4001 40.9332 34.7334 42.7999 32.8667C45.6888 29.9778 47.9999 26.7778 49.7332 23.2667C51.4666 19.7556 52.3777 16.4445 52.4666 13.3334C52.4666 13.1556 52.4328 12.9778 52.3652 12.8001C52.2977 12.6223 52.1981 12.4667 52.0666 12.3334C51.935 12.2001 51.7794 12.1005 51.5999 12.0347C51.4203 11.9689 51.2426 11.9352 51.0666 11.9334ZM36.3999 27.9334C35.3777 26.9112 34.8666 25.6561 34.8666 24.1681C34.8666 22.6801 35.3777 21.4241 36.3999 20.4001C37.4221 19.3761 38.6888 18.8649 40.1999 18.8667C41.711 18.8685 42.9777 19.3796 43.9999 20.4001C45.0221 21.4205 45.5332 22.6765 45.5332 24.1681C45.5332 25.6596 45.0221 26.9147 43.9999 27.9334C42.9777 28.9521 41.711 29.4632 40.1999 29.4667C38.6888 29.4703 37.4221 28.9592 36.3999 27.9334ZM34.1332 45.4001L36.3332 50.6667L41.9332 45.0667L41.1999 41.3334C40.0443 42.1334 38.8888 42.8561 37.7332 43.5014C36.5777 44.1467 35.3777 44.7796 34.1332 45.4001ZM57.5332 9.80005C57.8888 14.6889 57.0888 19.4561 55.1332 24.1014C53.1777 28.7467 50.0888 33.1796 45.8666 37.4001L47.1999 44.0001C47.3777 44.8889 47.3332 45.7556 47.0666 46.6001C46.7999 47.4445 46.3554 48.1778 45.7332 48.8001L37.3332 57.2001C36.6666 57.8667 35.8666 58.1227 34.9332 57.9681C33.9999 57.8134 33.3554 57.2907 32.9999 56.4001L28.9332 46.8667L17.5332 35.4667L7.99989 31.4001C7.111 31.0445 6.57766 30.4001 6.39989 29.4667C6.22211 28.5334 6.46655 27.7334 7.13322 27.0667L15.5332 18.6667C16.1554 18.0445 16.8994 17.6001 17.7652 17.3334C18.631 17.0667 19.5092 17.0223 20.3999 17.2001L26.9999 18.5334C31.2221 14.3112 35.6559 11.2223 40.3012 9.26672C44.9466 7.31116 49.7128 6.51116 54.5999 6.86672C54.9554 6.91116 55.311 7.01161 55.6666 7.16805C56.0221 7.3245 56.3332 7.53516 56.5999 7.80005C56.8666 8.06494 57.0781 8.37605 57.2346 8.73339C57.391 9.09072 57.4906 9.44627 57.5332 9.80005ZM10.4666 42.6001C12.0221 41.0445 13.9226 40.2561 16.1679 40.2347C18.4132 40.2134 20.3128 40.9796 21.8666 42.5334C23.4203 44.0872 24.1874 45.9876 24.1679 48.2347C24.1483 50.4818 23.359 52.3814 21.7999 53.9334C19.6666 56.0667 17.1439 57.3334 14.2319 57.7334C11.3199 58.1334 8.39811 58.5334 5.46655 58.9334L6.66655 50.1681C7.06655 47.2578 8.33322 44.7352 10.4666 42.6001ZM14.2666 46.3334C13.511 47.0889 12.9892 48.0001 12.7012 49.0667C12.4132 50.1334 12.1794 51.2223 11.9999 52.3334C13.111 52.1556 14.1999 51.9334 15.2666 51.6667C16.3332 51.4001 17.2443 50.8889 17.9999 50.1334C18.5332 49.6001 18.8221 48.9556 18.8666 48.2001C18.911 47.4445 18.6666 46.8001 18.1332 46.2667C17.5999 45.7334 16.9554 45.4774 16.1999 45.4987C15.4443 45.5201 14.7999 45.7983 14.2666 46.3334Z" fill="#DD0F1C"/>
</svg>
