<svg width="64" height="64" viewBox="0 0 64 64" fill="none" xmlns="http://www.w3.org/2000/svg">
<path d="M31.668 5C35.2044 5 38.5959 6.40483 41.0965 8.90543C43.5971 11.406 45.002 14.7976 45.002 18.334C45.002 21.8704 43.5971 25.2619 41.0965 27.7625C38.5959 30.2631 35.2044 31.668 31.668 31.668C28.1316 31.668 24.74 30.2631 22.2394 27.7625C19.7388 25.2619 18.334 21.8704 18.334 18.334C18.334 14.7976 19.7388 11.406 22.2394 8.90543C24.74 6.40483 28.1316 5 31.668 5ZM31.668 11.667C29.8998 11.667 28.204 12.3694 26.9537 13.6197C25.7034 14.87 25.001 16.5658 25.001 18.334C25.001 20.1022 25.7034 21.798 26.9537 23.0483C28.204 24.2986 29.8998 25.001 31.668 25.001C33.4362 25.001 35.1319 24.2986 36.3822 23.0483C37.6325 21.798 38.335 20.1022 38.335 18.334C38.335 16.5658 37.6325 14.87 36.3822 13.6197C35.1319 12.3694 33.4362 11.667 31.668 11.667ZM31.668 35.0015C40.5684 35.0015 58.3359 39.435 58.3359 48.3354V58.3359H5V48.3354C5 39.435 22.7675 35.0015 31.668 35.0015ZM31.668 41.3351C21.7675 41.3351 11.3336 46.202 11.3336 48.3354V52.0023H52.0023V48.3354C52.0023 46.202 41.5685 41.3351 31.668 41.3351Z" fill="#DD0F1C"/>
</svg>
