<svg width="64" height="64" viewBox="0 0 64 64" fill="none" xmlns="http://www.w3.org/2000/svg">
<path fill-rule="evenodd" clip-rule="evenodd" d="M44.9996 10.0007C43.5936 9.99993 42.2069 10.3287 40.9508 10.9605C39.6947 11.5923 38.6041 12.5097 37.7665 13.639C36.9288 14.7683 36.3674 16.0781 36.1273 17.4635C35.8871 18.8489 35.9749 20.2713 36.3836 21.6167L36.9036 23.3367L35.6356 24.6087L10.6196 49.6207C10.121 50.1193 9.84092 50.7955 9.84092 51.5007C9.84092 52.2058 10.121 52.882 10.6196 53.3807C11.1182 53.8793 11.7945 54.1594 12.4996 54.1594C13.2048 54.1594 13.881 53.8793 14.3796 53.3807L39.3916 28.3607L40.6636 27.0887L42.3836 27.6087C44.0548 28.1177 45.8379 28.1294 47.5156 27.6423C49.1932 27.1551 50.6928 26.1903 51.8315 24.8655C52.9702 23.5406 53.6987 21.913 53.9281 20.1812C54.1576 18.4494 53.878 16.6883 53.1236 15.1127L47.1236 21.1167C46.847 21.4033 46.5161 21.632 46.1502 21.7894C45.7842 21.9468 45.3906 22.0297 44.9923 22.0334C44.5939 22.037 44.1989 21.9613 43.8301 21.8107C43.4614 21.66 43.1263 21.4374 42.8445 21.1558C42.5627 20.8743 42.3398 20.5394 42.1887 20.1708C42.0377 19.8022 41.9616 19.4072 41.9649 19.0089C41.9682 18.6105 42.0507 18.2168 42.2078 17.8508C42.3649 17.4847 42.5932 17.1535 42.8796 16.8767L48.8796 10.8767C47.6686 10.2963 46.3426 9.99951 44.9996 10.0007ZM29.9996 19.0007C29.9999 15.925 30.9456 12.9238 32.7086 10.4037C34.4716 7.88352 36.9667 5.96621 39.8558 4.91151C42.7449 3.85681 45.8884 3.7157 48.8604 4.50731C51.8324 5.29892 54.4892 6.98498 56.4709 9.33705C58.4526 11.6891 59.6634 14.5935 59.9392 17.6567C60.215 20.72 59.5426 23.7939 58.0129 26.4622C56.4833 29.1304 54.1704 31.264 51.3876 32.5738C48.6048 33.8836 45.4867 34.3063 42.4556 33.7847L40.2436 36.0007L43.9996 39.7607L45.8796 37.8807L47.9996 35.7607L50.1196 37.8807L57.6196 45.3807C58.4436 46.1798 59.1004 47.1349 59.5518 48.1902C60.0033 49.2456 60.2402 50.3802 60.249 51.5281C60.2578 52.6759 60.0382 53.814 59.603 54.8762C59.1678 55.9384 58.5257 56.9033 57.714 57.715C56.9023 58.5267 55.9373 59.1688 54.8752 59.604C53.813 60.0392 52.6749 60.2588 51.5271 60.25C50.3792 60.2413 49.2446 60.0043 48.1892 59.5529C47.1338 59.1015 46.1788 58.4446 45.3796 57.6207L37.8796 50.1207L35.7596 48.0007L37.8796 45.8807L39.7596 44.0007L35.9996 40.2407L18.6196 57.6207C17.8205 58.4446 16.8654 59.1015 15.81 59.5529C14.7547 60.0043 13.62 60.2413 12.4722 60.25C11.3244 60.2588 10.1863 60.0392 9.1241 59.604C8.06194 59.1688 7.09695 58.5267 6.28528 57.715C5.47362 56.9033 4.8315 55.9384 4.39629 54.8762C3.96108 53.814 3.74147 52.6759 3.75025 51.5281C3.75903 50.3802 3.99602 49.2456 4.44743 48.1902C4.89884 47.1349 5.55565 46.1798 6.37964 45.3807L23.7556 28.0007L13.9996 18.2407L11.5316 20.7087L9.50364 17.6647L5.50364 11.6646L4.13964 9.61665L5.87964 7.88065L7.87964 5.88065L9.61564 4.14065L11.6636 5.50465L17.6636 9.50465L20.7076 11.5326L18.2436 14.0007L27.9996 23.7607L30.2156 21.5447C30.076 20.7038 30.0038 19.8531 29.9996 19.0007ZM47.9996 44.2407L53.3796 49.6207C53.8782 50.1193 54.1584 50.7955 54.1584 51.5007C54.1584 52.2058 53.8782 52.882 53.3796 53.3807C52.881 53.8793 52.2048 54.1594 51.4996 54.1594C50.7945 54.1594 50.1182 53.8793 49.6196 53.3807L44.2436 48.0007L47.9996 44.2407Z" fill="#DD0F1C"/>
</svg>
