<svg width="64" height="64" viewBox="0 0 64 64" fill="none" xmlns="http://www.w3.org/2000/svg">
<path d="M31.9999 58.6668C17.2719 58.6668 5.33325 46.7282 5.33325 32.0002C5.33325 17.2722 17.2719 5.3335 31.9999 5.3335C46.7279 5.3335 58.6666 17.2722 58.6666 32.0002C58.6666 46.7282 46.7279 58.6668 31.9999 58.6668ZM31.9999 53.3335C37.6579 53.3335 43.0841 51.0859 47.0849 47.0851C51.0856 43.0843 53.3333 37.6581 53.3333 32.0002C53.3333 26.3422 51.0856 20.916 47.0849 16.9152C43.0841 12.9144 37.6579 10.6668 31.9999 10.6668C26.342 10.6668 20.9158 12.9144 16.915 16.9152C12.9142 20.916 10.6666 26.3422 10.6666 32.0002C10.6666 37.6581 12.9142 43.0843 16.915 47.0851C20.9158 51.0859 26.342 53.3335 31.9999 53.3335ZM18.6666 30.6668L42.6666 21.3335L33.3333 45.3388L29.3333 34.6668L18.6666 30.6668Z" fill="#DD0F1C"/>
</svg>
