<svg width="64" height="64" viewBox="0 0 64 64" fill="none" xmlns="http://www.w3.org/2000/svg">
<path d="M37.3333 56C36.6261 56 35.9478 55.7191 35.4477 55.219C34.9476 54.7189 34.6667 54.0406 34.6667 53.3333V32C34.6667 31.2928 34.9476 30.6145 35.4477 30.1144C35.9478 29.6143 36.6261 29.3333 37.3333 29.3333H53.3333C54.0406 29.3333 54.7189 29.6143 55.219 30.1144C55.7191 30.6145 56 31.2928 56 32V53.3333C56 54.0406 55.7191 54.7189 55.219 55.219C54.7189 55.7191 54.0406 56 53.3333 56H37.3333ZM10.6667 34.6667C9.95942 34.6667 9.28115 34.3857 8.78105 33.8856C8.28095 33.3855 8 32.7072 8 32V10.6667C8 9.95942 8.28095 9.28115 8.78105 8.78105C9.28115 8.28095 9.95942 8 10.6667 8H26.6667C27.3739 8 28.0522 8.28095 28.5523 8.78105C29.0524 9.28115 29.3333 9.95942 29.3333 10.6667V32C29.3333 32.7072 29.0524 33.3855 28.5523 33.8856C28.0522 34.3857 27.3739 34.6667 26.6667 34.6667H10.6667ZM24 29.3333V13.3333H13.3333V29.3333H24ZM10.6667 56C9.95942 56 9.28115 55.7191 8.78105 55.219C8.28095 54.7189 8 54.0406 8 53.3333V42.6667C8 41.9594 8.28095 41.2811 8.78105 40.7811C9.28115 40.281 9.95942 40 10.6667 40H26.6667C27.3739 40 28.0522 40.281 28.5523 40.7811C29.0524 41.2811 29.3333 41.9594 29.3333 42.6667V53.3333C29.3333 54.0406 29.0524 54.7189 28.5523 55.219C28.0522 55.7191 27.3739 56 26.6667 56H10.6667ZM13.3333 50.6667H24V45.3333H13.3333V50.6667ZM40 50.6667H50.6667V34.6667H40V50.6667ZM34.6667 10.6667C34.6667 9.95942 34.9476 9.28115 35.4477 8.78105C35.9478 8.28095 36.6261 8 37.3333 8H53.3333C54.0406 8 54.7189 8.28095 55.219 8.78105C55.7191 9.28115 56 9.95942 56 10.6667V21.3333C56 22.0406 55.7191 22.7189 55.219 23.219C54.7189 23.719 54.0406 24 53.3333 24H37.3333C36.6261 24 35.9478 23.719 35.4477 23.219C34.9476 22.7189 34.6667 22.0406 34.6667 21.3333V10.6667ZM40 13.3333V18.6667H50.6667V13.3333H40Z" fill="#DD0F1C"/>
</svg>
