<svg width="64" height="64" viewBox="0 0 64 64" fill="none" xmlns="http://www.w3.org/2000/svg">
<path d="M53.3333 34.6667C53.3333 40.56 50.9466 45.8933 47.0853 49.752L50.8559 53.5227C53.3357 51.0491 55.3023 48.1099 56.6427 44.874C57.9831 41.6381 58.6709 38.1692 58.6666 34.6667C58.6666 19.9387 46.7279 8 31.9999 8C17.2719 8 5.33327 19.9387 5.33327 34.6667C5.32881 38.1692 6.01654 41.6382 7.35696 44.8741C8.69737 48.11 10.664 51.0492 13.1439 53.5227L16.9146 49.752C14.434 47.2712 12.6034 44.217 11.5851 40.8598C10.5668 37.5026 10.3921 33.9461 11.0766 30.5053C11.761 27.0645 13.2835 23.8456 15.5091 21.1337C17.7347 18.4218 20.5947 16.3006 23.8359 14.9581C27.0771 13.6155 30.5994 13.093 34.0907 13.4368C37.582 13.7806 40.9347 14.9802 43.8517 16.9292C46.7688 18.8782 49.1601 21.5165 50.814 24.6104C52.4678 27.7044 53.3331 31.1584 53.3333 34.6667ZM40.7813 22.1147L27.9999 33.3333L33.3333 38.6667L44.5519 25.8853L40.7813 22.1147Z" fill="#DD0F1C"/>
</svg>
