<svg width="64" height="64" viewBox="0 0 64 64" fill="none" xmlns="http://www.w3.org/2000/svg">
<path d="M23.1159 23.1127C20.7583 23.1127 18.4973 22.1761 16.8302 20.509C15.1631 18.842 14.2266 16.5809 14.2266 14.2233C14.2266 11.8657 15.1631 9.60468 16.8302 7.93761C18.4973 6.27054 20.7583 5.33398 23.1159 5.33398H32.0039V23.1127M23.1159 23.1127H32.0039M23.1159 23.1127C20.7587 23.1127 18.498 24.0491 16.8311 25.7159C15.1643 27.3827 14.2279 29.6434 14.2279 32.0007C14.2279 34.3579 15.1643 36.6186 16.8311 38.2854C18.498 39.9522 20.7587 40.8887 23.1159 40.8887H32.0039V23.1127" stroke="#DD0F1C" stroke-width="3.5"/>
<path d="M49.7812 32.0007C49.7812 34.3583 48.8447 36.6193 47.1776 38.2864C45.5105 39.9534 43.2495 40.89 40.8919 40.89C38.5343 40.89 36.2733 39.9534 34.6062 38.2864C32.9391 36.6193 32.0026 34.3583 32.0026 32.0007C32.0026 29.6431 32.9391 27.382 34.6062 25.715C36.2733 24.0479 38.5343 23.1113 40.8919 23.1113C43.2495 23.1113 45.5105 24.0479 47.1776 25.715C48.8447 27.382 49.7812 29.6431 49.7812 32.0007ZM23.1146 40.8913H32.0026V49.7793C32.002 51.5371 31.4803 53.2552 30.5034 54.7165C29.5264 56.1778 28.1381 57.3166 26.514 57.9889C24.8899 58.6612 23.1029 58.8368 21.379 58.4936C19.655 58.1503 18.0716 57.3036 16.8289 56.0605C15.5861 54.8174 14.7399 53.2337 14.3972 51.5096C14.0544 49.7856 14.2306 47.9987 14.9034 46.3748C15.5762 44.7508 16.7154 43.3629 18.1769 42.3864C19.6385 41.4099 21.3568 40.8913 23.1146 40.8913Z" stroke="#DD0F1C" stroke-width="3.5"/>
<path d="M32 5.33398H40.888C43.2456 5.33398 45.5066 6.27054 47.1737 7.93761C48.8408 9.60468 49.7773 11.8657 49.7773 14.2233C49.7773 16.5809 48.8408 18.842 47.1737 20.509C45.5066 22.1761 43.2456 23.1126 40.888 23.1126H32V5.33398Z" stroke="#DD0F1C" stroke-width="3.5"/>
</svg>
